<svg width="122" height="118" viewBox="0 0 122 118" fill="none" xmlns="http://www.w3.org/2000/svg">
<path fill-rule="evenodd" clip-rule="evenodd" d="M61.0003 0.103027C27.6533 0.103027 0.612305 27.138 0.612305 60.491C0.612305 87.173 17.9153 109.808 41.9093 117.794C44.9263 118.354 46.0343 116.484 46.0343 114.889C46.0343 113.449 45.9783 108.692 45.9523 103.646C29.1523 107.299 25.6073 96.521 25.6073 96.521C22.8603 89.541 18.9023 87.685 18.9023 87.685C13.4223 83.937 19.3153 84.015 19.3153 84.015C25.3783 84.44 28.5723 90.238 28.5723 90.238C33.9583 99.468 42.6993 96.8 46.1453 95.258C46.6873 91.355 48.2523 88.69 49.9793 87.182C36.5663 85.657 22.4653 80.478 22.4653 57.339C22.4653 50.746 24.8253 45.359 28.6883 41.129C28.0603 39.609 25.9933 33.467 29.2723 25.149C29.2723 25.149 34.3423 23.526 45.8823 31.339C50.7003 30 55.8673 29.327 61.0003 29.304C66.1303 29.327 71.3003 29.998 76.1273 31.337C87.6533 23.524 92.7173 25.147 92.7173 25.147C96.0043 33.464 93.9373 39.607 93.3103 41.127C97.1823 45.357 99.5253 50.744 99.5253 57.337C99.5253 80.531 85.3983 85.637 71.9513 87.133C74.1183 89.007 76.0483 92.683 76.0483 98.316C76.0483 106.396 75.9783 112.899 75.9783 114.888C75.9783 116.495 77.0663 118.378 80.1263 117.785C104.106 109.791 121.389 87.163 121.389 60.491C121.388 27.14 94.3503 0.104027 61.0003 0.104027V0.103027Z" fill="white"/>
<path d="M23.4846 86.8059C23.3516 87.1059 22.8796 87.1959 22.4496 86.9909C22.0096 86.7949 21.7646 86.3859 21.9066 86.0849C22.0366 85.7749 22.5096 85.6899 22.9466 85.8969C23.3866 86.0939 23.6366 86.5069 23.4836 86.8069L23.4846 86.8059ZM25.9306 89.5349C25.6436 89.8019 25.0806 89.6779 24.6986 89.2549C24.3026 88.8349 24.2286 88.2719 24.5216 88.0009C24.8196 87.7349 25.3656 87.8609 25.7616 88.2809C26.1556 88.7069 26.2336 89.2649 25.9316 89.5359L25.9306 89.5349ZM28.3126 93.0119C27.9426 93.2699 27.3366 93.0289 26.9626 92.4919C26.5926 91.9539 26.5926 91.3089 26.9726 91.0519C27.3456 90.7939 27.9426 91.0269 28.3226 91.5589C28.6906 92.1039 28.6906 92.7489 28.3126 93.0109V93.0119ZM31.5736 96.3729C31.2436 96.7379 30.5376 96.6399 30.0216 96.1429C29.4946 95.6559 29.3476 94.9629 29.6786 94.5989C30.0146 94.2329 30.7236 94.3349 31.2426 94.8289C31.7696 95.3149 31.9286 96.0089 31.5756 96.3719L31.5736 96.3729ZM36.0736 98.3239C35.9266 98.7969 35.2486 99.0119 34.5636 98.8099C33.8806 98.6029 33.4336 98.0499 33.5736 97.5719C33.7136 97.0949 34.3966 96.8719 35.0856 97.0869C35.7686 97.2929 36.2156 97.8429 36.0736 98.3239ZM41.0166 98.6849C41.0336 99.1829 40.4536 99.5949 39.7366 99.6049C39.0136 99.6219 38.4286 99.2179 38.4216 98.7279C38.4216 98.2249 38.9896 97.8179 39.7116 97.8039C40.4286 97.7909 41.0176 98.1909 41.0176 98.6839L41.0166 98.6849ZM45.6146 97.9029C45.7006 98.3879 45.2016 98.8869 44.4886 99.0199C43.7886 99.1499 43.1386 98.8479 43.0486 98.3669C42.9626 97.8689 43.4706 97.3699 44.1706 97.2409C44.8846 97.1179 45.5246 97.4109 45.6146 97.9039V97.9029Z" fill="white"/>
</svg>
