<svg width="140" height="140" viewBox="0 0 140 140" fill="none" xmlns="http://www.w3.org/2000/svg">
<path d="M27.4348 0C12.3478 0 0 12.3475 0 27.4348V112.57C0 127.657 12.3475 140 27.4348 140H112.57C127.657 140 140 127.657 140 112.57V27.4348C140 12.3478 127.657 0 112.57 0H27.4348ZM34.335 23.1028C41.5689 23.1028 46.0247 27.8517 46.1622 34.0941C46.1622 40.1987 41.5686 45.0811 34.1951 45.0811H34.0594C26.9632 45.0811 22.3766 40.199 22.3766 34.0941C22.3766 27.8519 27.102 23.1028 34.3349 23.1028H34.335ZM96.6735 52.279C110.586 52.279 121.015 61.372 121.015 80.9125V117.391H99.872V83.3583C99.872 74.8061 96.8121 68.9715 89.1607 68.9715C83.3196 68.9715 79.838 72.9041 78.3093 76.7031C77.7509 78.0623 77.6137 79.9605 77.6137 81.8619V117.391H56.471C56.471 117.391 56.7485 59.7403 56.471 53.7709H77.618V62.7802C80.4276 58.4453 85.4533 52.2788 96.6735 52.2788V52.279ZM23.6237 53.7755H44.7664V117.392H23.6237V53.7755V53.7755Z" fill="#F75C7E"/>
</svg>
