<svg width="24" height="24" viewBox="0 0 24 24" fill="none" xmlns="http://www.w3.org/2000/svg">
<path d="M12 0C5.37109 0 0 5.37109 0 12C0 17.0859 3.16406 21.4258 7.62891 23.1758C7.52344 22.2266 7.42578 20.7695 7.66797 19.7305C7.88672 18.7969 9.07422 13.7656 9.07422 13.7656C9.07422 13.7656 8.71875 13.0469 8.71875 11.9844C8.71875 10.3164 9.68359 9.07031 10.8867 9.07031C11.9102 9.07031 12.4062 9.83984 12.4062 10.7617C12.4062 11.793 11.75 13.332 11.4102 14.7578C11.1289 15.9531 12.0117 16.9258 13.1875 16.9258C15.3203 16.9258 16.9609 14.6758 16.9609 11.4297C16.9609 8.55859 14.8984 6.55078 11.9492 6.55078C8.53516 6.55078 6.53125 9.10938 6.53125 11.7578C6.53125 12.7891 6.92969 13.8945 7.42578 14.4961C7.52344 14.6133 7.53516 14.7187 7.50781 14.8398C7.41406 15.2187 7.21484 16.0352 7.17578 16.1992C7.12109 16.4219 7 16.4688 6.77344 16.3594C5.27344 15.6641 4.33594 13.4727 4.33594 11.7109C4.33594 7.92578 7.08594 4.44922 12.2656 4.44922C16.4297 4.44922 19.6641 7.41406 19.6641 11.3828C19.6641 15.5156 17.0547 18.8438 13.4375 18.8438C12.2227 18.8438 11.0781 18.2148 10.6875 17.4688C10.6875 17.4688 10.0859 19.7578 9.9375 20.3203C9.66797 21.3633 8.9375 22.668 8.44531 23.4648C9.57031 23.8125 10.7617 24 12 24C18.6289 24 24 18.6289 24 12C24 5.37109 18.6289 0 12 0Z" fill="#F75C7E"/>
</svg>
